<?xml version="1.0" standalone="no"?>
<!DOCTYPE svg PUBLIC "-//W3C//DTD SVG 20010904//EN"
 "http://www.w3.org/TR/2001/REC-SVG-20010904/DTD/svg10.dtd">
<svg version="1.0" xmlns="http://www.w3.org/2000/svg"
 width="1775.000000pt" height="1775.000000pt" viewBox="0 0 1775.000000 1775.000000"
 preserveAspectRatio="xMidYMid meet">
<metadata>
Created by potrace 1.14, written by Peter Selinger 2001-2017
</metadata>
<g transform="translate(0.000000,1775.000000) scale(0.100000,-0.100000)"
fill="#000000" stroke="none">
<path d="M6605 17734 c-43 -8 -82 -18 -85 -22 -3 -5 -21 -15 -40 -22 -43 -18
-57 -29 -131 -104 -32 -32 -64 -74 -71 -92 -7 -19 -15 -34 -19 -34 -4 0 -13
-24 -19 -52 -7 -29 -17 -58 -22 -65 -12 -15 -5 -168 10 -210 l11 -33 -220 0
-219 0 -26 43 c-81 132 -127 181 -180 196 -56 16 -939 15 -984 -1 -18 -6 -41
-19 -52 -30 -10 -10 -22 -18 -28 -18 -5 0 -10 -5 -10 -12 0 -6 -8 -20 -17 -31
-16 -17 -18 -53 -21 -381 -3 -359 1 -452 19 -441 5 4 9 -1 9 -10 0 -26 66 -83
105 -91 19 -3 32 -10 29 -15 -3 -5 189 -9 455 -9 262 0 461 4 461 9 0 5 16 12
36 16 38 7 114 74 114 101 0 8 7 17 15 20 8 4 15 13 15 20 0 8 7 17 15 20 8 4
15 11 15 18 1 6 9 21 19 34 19 22 20 22 330 22 l311 0 0 -87 c0 -75 -3 -92
-27 -132 -14 -25 -29 -48 -33 -51 -4 -3 -10 -15 -14 -27 -4 -13 -13 -29 -20
-35 -6 -7 -25 -38 -40 -68 -16 -30 -32 -57 -36 -60 -6 -5 -21 -30 -52 -90 -7
-14 -15 -27 -18 -30 -26 -25 -30 -61 -30 -273 l0 -223 -167 -12 c-92 -7 -170
-16 -173 -21 -3 -4 -41 -13 -85 -20 -44 -7 -84 -17 -90 -21 -5 -4 -36 -13 -67
-20 -32 -7 -58 -17 -58 -21 0 -4 -22 -12 -50 -19 -27 -7 -50 -15 -50 -19 0 -4
-19 -13 -42 -20 -22 -7 -47 -19 -55 -26 -13 -14 -62 4 -263 98 -120 55 -305
136 -435 189 -151 62 -392 157 -425 169 -14 4 -92 33 -175 63 -274 102 -1034
347 -1048 339 -5 -3 -6 -19 -3 -37 3 -17 15 -132 26 -256 110 -1202 405 -2477
854 -3694 l66 -180 0 -638 0 -638 185 0 185 0 0 -2330 0 -2330 -185 0 -185 0
0 -730 0 -730 185 0 185 0 0 -653 0 -653 -127 -159 c-70 -88 -204 -257 -298
-375 -94 -118 -232 -291 -306 -385 -190 -240 -463 -584 -569 -715 -33 -41 -60
-77 -60 -81 0 -3 9 -14 20 -24 17 -15 22 -16 36 -4 9 7 163 198 342 424 179
225 403 507 497 625 179 225 977 1230 1196 1505 181 229 714 899 1107 1394
381 479 684 861 999 1259 119 149 221 272 227 272 6 0 17 -4 25 -9 17 -11 25
-1 -214 -301 -386 -484 -483 -608 -525 -665 -62 -85 -1156 -1462 -1199 -1510
-42 -47 -1175 -1473 -1211 -1525 -37 -53 -1150 -1452 -1176 -1479 -13 -13 -24
-29 -23 -35 0 -6 100 -83 221 -171 223 -162 619 -450 913 -665 88 -64 279
-204 424 -310 l265 -193 28 32 c15 17 28 37 28 44 -1 6 -40 40 -88 74 -48 34
-193 140 -322 234 -129 95 -284 208 -345 252 -60 43 -116 85 -123 91 -13 12
41 81 971 1251 65 83 125 154 131 159 13 9 53 -18 315 -212 65 -48 225 -165
356 -261 l238 -173 19 23 c55 69 55 69 23 95 -17 13 -218 160 -447 326 -229
167 -417 308 -417 315 -1 9 1062 1356 1108 1406 4 4 93 -55 197 -131 104 -76
308 -225 453 -331 l264 -193 19 23 c51 64 53 69 32 88 -10 10 -109 83 -219
163 -110 79 -286 207 -391 284 -104 76 -207 150 -227 164 -21 14 -36 30 -35
36 5 17 1110 1404 1120 1404 5 0 14 -5 21 -10 7 -6 62 -47 122 -91 61 -45 139
-102 175 -129 36 -26 151 -109 255 -185 105 -76 219 -160 254 -187 35 -26 67
-48 70 -48 8 0 71 81 71 90 0 5 -131 103 -464 346 -354 258 -431 316 -429 324
2 7 752 956 1062 1342 25 32 51 58 56 58 11 0 74 -45 577 -414 172 -126 317
-230 323 -232 9 -3 75 75 75 89 0 4 -33 30 -74 59 -87 62 -418 303 -591 431
-66 49 -121 93 -123 98 -2 5 7 9 20 9 13 0 59 9 103 20 160 40 314 97 475 177
91 45 167 78 170 74 3 -4 48 -38 100 -75 52 -38 97 -70 98 -72 2 -1 -21 -27
-50 -57 l-55 -54 -96 69 c-87 62 -117 75 -117 48 0 -5 45 -42 100 -82 l101
-72 -8 -46 c-4 -25 -7 -64 -6 -88 1 -24 -1 -42 -5 -40 -4 2 -69 47 -144 101
-127 91 -158 106 -158 74 0 -7 75 -66 165 -131 135 -97 171 -129 196 -170 17
-28 45 -65 62 -83 22 -23 27 -36 20 -45 -6 -7 -75 -94 -154 -194 -79 -99 -270
-339 -424 -534 -342 -431 -503 -633 -751 -945 -636 -801 -1599 -2012 -1823
-2295 -63 -80 -174 -219 -246 -310 -73 -91 -325 -408 -560 -705 -236 -297
-506 -637 -600 -755 -478 -602 -439 -549 -420 -570 27 -29 39 -25 85 30 44 52
59 59 82 37 7 -8 30 -20 51 -26 20 -7 37 -16 37 -20 0 -4 23 -13 50 -20 28 -7
50 -16 50 -21 0 -4 28 -13 63 -20 34 -7 64 -16 67 -20 3 -4 53 -14 112 -24 94
-14 232 -16 1177 -16 930 0 1085 2 1178 16 59 9 110 19 113 23 3 4 33 14 68
21 34 7 62 16 62 20 0 5 23 13 50 20 28 7 50 15 50 19 0 4 18 14 40 21 22 7
40 17 40 21 0 4 12 12 28 18 41 18 85 43 100 58 7 7 17 13 21 13 4 0 17 8 29
18 11 10 33 27 48 38 91 65 271 246 287 289 4 8 11 15 17 15 5 0 10 5 10 11 0
6 11 25 25 43 14 18 25 38 25 44 0 7 3 12 8 12 4 0 14 15 21 33 8 17 21 38 28
45 7 7 13 20 13 28 0 8 4 14 8 14 4 0 13 17 19 38 17 58 47 136 54 142 4 3 12
39 20 80 7 41 16 77 20 80 23 16 29 385 29 1847 l0 1553 188 2 c171 3 187 4
186 21 -2 15 11 17 142 17 137 0 144 -1 144 -20 0 -19 7 -20 185 -20 l184 0 3
-1690 c2 -1242 6 -1693 14 -1698 6 -4 15 -31 19 -59 4 -29 11 -55 15 -58 4 -3
6 -14 3 -25 -3 -11 -1 -20 5 -20 6 0 13 -18 17 -40 4 -22 10 -40 15 -40 4 0
13 -22 20 -50 7 -27 15 -50 18 -50 4 0 21 -28 37 -63 17 -34 33 -64 38 -65 4
-2 7 -8 7 -14 0 -6 11 -26 25 -44 14 -18 25 -35 25 -38 0 -3 8 -14 18 -24 9
-11 37 -43 62 -72 79 -92 157 -167 225 -215 15 -11 36 -28 47 -38 10 -9 21
-17 26 -17 7 0 86 -50 108 -69 6 -5 20 -12 32 -15 12 -4 22 -11 22 -15 0 -4
18 -13 40 -20 22 -6 40 -15 40 -20 0 -4 23 -13 50 -20 28 -7 50 -16 50 -21 0
-4 29 -13 65 -20 36 -7 65 -16 65 -19 0 -4 51 -15 113 -24 99 -15 231 -17
1180 -17 942 0 1081 2 1175 16 59 10 109 20 112 24 3 4 33 13 68 20 34 7 62
16 62 20 0 5 23 13 50 20 28 7 50 16 50 20 0 5 14 11 30 15 17 4 36 12 43 18
7 7 38 26 70 42 31 17 57 33 57 37 0 4 8 9 19 13 10 3 28 13 40 23 11 9 37 28
56 42 42 29 207 189 247 239 19 24 29 30 32 20 2 -8 10 -32 16 -54 37 -121
158 -266 267 -320 110 -54 228 -70 297 -41 31 13 136 89 316 230 165 129 374
311 542 474 100 98 239 231 308 296 69 65 135 136 148 158 67 122 -23 330
-176 405 -77 38 -184 40 -231 5 l-31 -22 -52 72 c-29 40 -62 85 -73 100 -11
15 -41 57 -68 93 l-47 67 25 30 c14 16 25 37 25 47 0 39 -116 246 -169 300 -9
9 -52 57 -96 106 -195 218 -386 409 -672 672 l-43 39 0 677 0 677 185 0 185 0
0 730 0 730 -185 0 -185 0 0 2330 0 2330 185 0 185 0 0 730 0 730 -185 0 -185
0 0 235 0 236 113 142 c62 78 198 249 303 381 104 131 270 341 369 465 99 125
282 355 406 511 125 157 389 490 588 740 198 250 361 457 361 460 0 6 -232
178 -910 672 -157 114 -415 303 -575 419 -159 117 -346 253 -414 302 l-124 90
-21 -25 c-61 -73 -103 -126 -205 -255 -63 -79 -116 -143 -119 -143 -3 0 3 9
14 21 18 20 19 44 22 402 1 209 0 388 -4 396 -4 9 -8 18 -9 21 -6 20 -29 60
-35 60 -3 0 -15 8 -26 18 -42 40 -71 42 -543 42 -442 0 -502 -3 -537 -32 -35
-29 -74 -73 -74 -85 0 -7 -4 -13 -9 -13 -5 0 -14 -13 -21 -30 -7 -16 -16 -30
-20 -30 -4 0 -13 -13 -20 -30 l-12 -30 -207 0 c-133 0 -201 4 -191 10 20 12
22 271 3 277 -7 3 -15 20 -19 39 -3 19 -10 34 -14 34 -4 0 -10 10 -14 23 -10
40 -119 160 -156 172 -11 3 -20 10 -20 14 0 5 -15 14 -32 22 -18 7 -35 16 -39
21 -3 4 -51 15 -107 25 -94 15 -110 15 -198 1 -53 -9 -99 -20 -103 -26 -3 -5
-23 -15 -43 -23 -21 -7 -38 -16 -38 -20 0 -4 -8 -10 -19 -14 -10 -3 -32 -19
-49 -35 -37 -35 -112 -135 -112 -150 0 -5 -4 -10 -8 -10 -10 0 -32 -90 -32
-131 0 -16 -4 -29 -10 -29 -12 0 -13 -75 -1 -98 4 -9 11 -36 14 -59 l5 -43
-379 0 -379 0 0 -50 0 -50 -210 0 -210 0 0 50 0 50 -200 0 -200 0 0 -270 0
-270 200 0 200 0 0 45 0 45 210 0 210 0 0 -45 0 -45 478 0 477 0 -6 -92 c-6
-96 -15 -138 -30 -138 -5 0 -9 -6 -9 -13 0 -8 -9 -24 -20 -37 -11 -13 -23 -34
-26 -47 -4 -13 -9 -23 -13 -23 -3 0 -13 -15 -20 -32 -8 -18 -21 -39 -28 -46
-7 -7 -13 -20 -13 -28 0 -8 -4 -14 -9 -14 -5 0 -14 -15 -22 -32 -7 -18 -16
-35 -19 -38 -3 -3 -18 -26 -33 -52 l-27 -47 0 -220 c0 -214 -1 -221 -20 -221
-55 0 -276 -24 -280 -30 -3 -4 -42 -13 -87 -20 -46 -7 -83 -16 -83 -20 0 -4
-29 -13 -65 -20 -36 -7 -65 -16 -65 -20 0 -5 -22 -14 -50 -21 -27 -7 -50 -16
-50 -20 0 -3 -20 -12 -45 -19 -25 -7 -45 -16 -45 -21 0 -4 -18 -14 -40 -20
-22 -7 -40 -15 -40 -19 0 -4 -12 -12 -27 -19 -31 -14 -132 -80 -151 -98 -7 -7
-17 -13 -21 -13 -5 0 -20 -10 -34 -22 -26 -24 -57 -49 -101 -83 -38 -29 -124
-115 -176 -175 -25 -29 -55 -64 -67 -78 -13 -14 -23 -28 -23 -33 0 -4 -6 -14
-12 -21 -7 -7 -26 -33 -43 -58 -16 -25 -32 -47 -35 -50 -11 -11 -32 -47 -47
-82 -9 -21 -20 -38 -25 -38 -4 0 -8 -6 -8 -14 0 -7 -11 -34 -25 -60 -14 -26
-25 -54 -25 -62 0 -7 -4 -14 -9 -14 -5 0 -14 -23 -21 -50 -7 -28 -16 -52 -20
-55 -5 -3 -11 -23 -15 -45 -4 -22 -10 -42 -15 -45 -4 -3 -14 -44 -21 -92 -7
-49 -17 -91 -23 -95 -8 -5 -12 -277 -14 -898 l-3 -890 -129 0 -129 0 -83 78
c-45 42 -105 97 -132 122 -27 25 -61 56 -76 70 -14 14 -128 115 -253 223
l-227 198 0 397 c0 392 -13 706 -30 727 -5 6 -12 34 -16 63 -4 29 -10 55 -14
57 -5 3 -6 14 -3 25 3 11 1 20 -5 20 -5 0 -13 20 -16 45 -4 25 -11 45 -15 45
-4 0 -14 25 -21 55 -7 30 -17 55 -21 55 -5 0 -11 16 -15 35 -3 19 -10 35 -14
35 -4 0 -13 18 -20 40 -7 22 -17 40 -22 40 -4 0 -8 6 -8 14 0 8 -7 22 -16 30
-8 9 -13 16 -9 16 4 0 -1 7 -9 16 -9 8 -16 21 -16 29 0 7 -7 15 -15 19 -8 3
-15 12 -15 20 0 7 -7 16 -15 20 -8 3 -15 10 -15 16 0 10 -36 63 -65 96 -5 7
-23 29 -40 50 -56 71 -174 183 -255 244 -18 14 -38 30 -44 35 -6 6 -45 33 -86
60 -41 28 -76 53 -78 57 -2 4 -19 12 -38 18 -19 6 -34 15 -34 19 0 4 -18 14
-40 21 -22 7 -40 16 -40 20 0 4 -18 12 -40 19 -22 6 -40 15 -40 20 0 4 -25 14
-55 21 -30 7 -55 16 -55 20 0 4 -26 13 -57 20 -32 7 -63 16 -68 20 -6 5 -47
14 -93 21 -45 8 -82 16 -82 20 0 4 -37 10 -82 13 -46 4 -104 9 -130 12 l-48 6
0 219 c0 208 -4 244 -30 269 -12 12 -40 60 -35 60 4 0 -1 7 -9 16 -9 8 -16 22
-16 30 0 8 -3 14 -8 14 -4 0 -13 15 -21 33 -8 17 -17 34 -20 37 -15 13 -49 68
-56 90 -4 14 -11 27 -14 30 -9 7 -42 60 -63 100 -12 24 -18 57 -18 107 l0 73
485 0 485 0 0 45 0 45 190 0 190 0 0 -45 0 -45 200 0 200 0 0 270 0 270 -200
0 -200 0 0 -50 0 -50 -190 0 -190 0 0 50 0 50 -380 0 c-377 0 -380 0 -380 21
0 11 5 17 10 14 6 -4 10 35 10 109 0 63 -4 117 -9 120 -5 4 -12 24 -16 46 -4
22 -10 40 -15 40 -4 0 -13 14 -19 31 -18 52 -96 143 -144 168 -15 8 -27 17
-27 21 0 4 -18 13 -40 20 -22 7 -40 17 -40 21 0 4 -24 12 -52 18 -96 19 -190
21 -273 5z m187 -273 c20 -5 42 -13 50 -20 83 -68 114 -125 111 -205 0 -28 -6
-52 -12 -54 -6 -2 -11 -12 -11 -22 0 -26 -57 -84 -108 -110 -35 -18 -55 -22
-114 -18 -44 2 -73 9 -76 16 -2 7 -10 12 -18 12 -23 0 -84 67 -90 100 -4 16
-10 30 -15 30 -13 0 -11 117 1 125 6 4 8 11 5 16 -4 5 -1 9 4 9 6 0 11 7 11
15 0 13 32 49 74 83 33 26 124 38 188 23z m5812 -2 c21 -6 45 -16 53 -22 33
-26 73 -72 73 -83 0 -7 6 -14 13 -16 8 -3 12 -30 12 -85 0 -62 -4 -83 -17 -97
-10 -10 -18 -23 -18 -29 0 -16 -58 -67 -75 -67 -7 0 -15 -6 -17 -12 -3 -9 -31
-13 -93 -13 -62 0 -90 4 -92 13 -3 6 -11 12 -18 12 -36 0 -105 85 -105 130 0
11 -4 20 -10 20 -5 0 -10 18 -10 40 0 22 4 40 9 40 4 0 11 16 14 36 6 33 22
53 93 113 34 29 123 38 188 20z m2450 -811 c8 -14 7 -20 -6 -30 -13 -11 -1052
-1319 -1296 -1633 -65 -83 -190 -241 -527 -665 -72 -91 -227 -286 -345 -435
-117 -148 -221 -277 -230 -285 -10 -8 -156 -190 -326 -405 -170 -214 -372
-469 -449 -566 -77 -96 -209 -263 -292 -370 -252 -320 -733 -931 -771 -977
-35 -44 -35 -44 -55 -24 -17 18 -18 22 -6 39 8 11 235 298 506 639 447 562
1030 1296 1457 1834 419 528 532 670 691 870 469 588 1385 1742 1530 1927 44
56 86 101 94 100 8 -1 19 -10 25 -19z m-1613 -114 c5 -15 23 -44 39 -64 17
-21 30 -41 30 -45 0 -20 87 -95 117 -101 18 -3 33 -10 33 -15 0 -5 198 -9 460
-9 256 0 460 4 460 9 0 5 12 11 28 14 15 3 38 15 51 26 27 23 39 28 24 9 -6
-7 -82 -103 -170 -213 -87 -110 -230 -290 -318 -400 -87 -110 -201 -253 -253
-318 -80 -102 -96 -117 -115 -111 -12 4 -24 10 -27 14 -3 4 -25 14 -50 21 -25
7 -47 16 -50 20 -3 3 -30 12 -60 19 -30 7 -59 16 -65 20 -5 4 -44 13 -85 20
-41 7 -79 17 -85 21 -8 6 -230 29 -281 29 -12 0 -14 35 -14 225 0 140 -4 225
-10 225 -5 0 -12 11 -16 25 -3 14 -10 25 -14 25 -4 0 -13 15 -21 33 -7 17 -15
34 -18 37 -9 8 -29 42 -49 80 -9 19 -23 39 -29 43 -7 4 -13 13 -13 20 0 7 -16
36 -35 66 -19 29 -38 63 -41 76 -3 13 -12 26 -20 29 -11 4 -14 28 -14 101 l0
95 300 0 300 0 11 -26z m1722 -97 c78 -57 175 -127 214 -156 44 -32 70 -58 66
-65 -4 -6 -50 -65 -103 -131 -98 -121 -864 -1087 -954 -1202 -27 -35 -53 -63
-58 -63 -11 0 -427 302 -428 310 0 3 120 156 266 340 231 290 446 561 768 967
45 56 83 102 84 102 2 1 67 -45 145 -102z m-12003 -398 c63 -22 151 -53 195
-69 94 -32 297 -110 545 -207 79 -31 384 -158 495 -206 281 -121 740 -335 769
-358 6 -5 103 -55 216 -113 279 -141 385 -197 595 -316 72 -40 148 -83 170
-96 22 -12 78 -45 123 -73 46 -28 86 -51 89 -51 5 0 160 -94 303 -185 113 -71
202 -125 206 -125 2 0 112 -73 245 -162 133 -90 249 -167 258 -173 9 -5 18
-13 21 -16 3 -3 59 -42 125 -87 66 -45 143 -99 172 -120 28 -20 89 -64 135
-97 46 -32 112 -82 148 -110 36 -28 75 -57 86 -65 50 -35 190 -143 334 -259
302 -243 346 -280 447 -368 45 -40 85 -73 89 -73 4 0 16 -10 28 -22 25 -26
114 -104 167 -146 31 -24 119 -103 263 -236 180 -166 836 -836 986 -1006 16
-18 168 -185 210 -230 14 -15 45 -51 70 -80 54 -63 73 -85 108 -125 149 -169
185 -218 199 -273 57 -227 82 -382 98 -607 33 -460 -11 -790 -151 -1130 -40
-97 -107 -228 -140 -270 -13 -18 -24 -37 -24 -43 0 -7 -4 -12 -10 -12 -5 0
-10 -7 -10 -15 0 -9 -7 -18 -15 -21 -8 -4 -15 -11 -15 -18 0 -11 -47 -70 -89
-112 -12 -12 -21 -24 -21 -27 0 -3 -35 -40 -77 -82 -97 -97 -283 -241 -283
-220 0 8 9 41 19 72 11 32 22 74 26 93 9 49 94 376 111 428 8 23 14 48 14 55
0 7 -26 29 -58 49 -31 21 -109 71 -172 113 -63 41 -122 78 -130 82 -8 3 -37
21 -65 38 -27 18 -81 52 -120 76 -166 104 -445 296 -587 404 -25 19 -49 35
-53 35 -3 0 -31 19 -61 43 -31 23 -70 53 -89 67 -18 14 -57 43 -87 66 -29 23
-78 59 -108 82 -130 96 -498 387 -510 403 -3 4 -36 32 -75 64 -134 109 -336
282 -350 299 -5 7 -32 32 -60 56 -73 63 -256 235 -428 402 -166 161 -194 180
-236 157 -51 -29 -39 -80 49 -204 120 -167 352 -530 484 -755 37 -63 71 -122
76 -130 32 -53 210 -371 210 -374 0 -2 16 -33 36 -68 87 -153 366 -727 470
-968 15 -36 33 -72 40 -80 6 -8 15 -26 18 -40 7 -25 41 -109 77 -187 10 -24
19 -46 19 -49 0 -4 15 -43 34 -88 19 -45 51 -124 71 -176 21 -52 44 -108 52
-125 8 -16 30 -73 50 -125 19 -52 40 -111 48 -130 l13 -35 113 0 c63 1 224 4
359 8 199 6 242 5 230 -5 -128 -105 -197 -149 -370 -233 -63 -32 -122 -60
-130 -65 -9 -4 -31 -11 -50 -15 -19 -4 -39 -11 -45 -15 -10 -7 -75 -27 -185
-57 -52 -14 -82 -19 -232 -43 -88 -13 -516 -13 -613 0 -131 18 -295 50 -370
72 -220 63 -518 167 -632 219 -24 10 -45 19 -47 19 -3 0 -34 14 -70 30 -46 21
-77 45 -103 77 -21 25 -45 53 -53 62 -31 33 -385 477 -436 546 -16 22 -31 42
-35 45 -5 5 -62 80 -131 174 -237 322 -346 476 -497 701 -123 184 -381 590
-381 600 0 3 -35 60 -77 128 -73 115 -184 308 -204 352 -5 11 -13 27 -19 35
-35 55 -153 275 -273 510 -77 151 -151 292 -164 312 -12 21 -23 40 -23 42 0 3
-21 49 -46 103 -65 141 -80 172 -104 228 -37 82 -61 136 -96 213 -19 40 -34
77 -34 83 0 6 -13 40 -30 76 -16 35 -30 66 -30 69 0 7 -122 299 -129 309 -4 6
-16 33 -25 60 -10 28 -26 69 -37 92 -10 24 -19 49 -19 57 0 8 -4 17 -9 21 -5
3 -13 20 -17 37 -3 18 -10 39 -15 48 -27 46 -202 554 -301 870 -11 36 -29 91
-39 123 -11 31 -19 65 -19 75 0 10 -4 22 -8 28 -5 5 -19 47 -31 94 -34 127
-60 221 -71 255 -5 17 -21 77 -35 135 -14 58 -28 112 -30 120 -12 41 -26 97
-30 115 -2 11 -18 79 -35 150 -18 72 -34 141 -36 155 -3 14 -12 52 -19 85 -17
72 -85 416 -90 453 -2 15 -8 48 -14 74 -6 26 -17 89 -25 140 -8 51 -19 120
-25 153 -18 110 -21 129 -41 270 -11 77 -24 168 -30 201 -12 73 -13 104 -2
104 4 0 59 -18 122 -41z m12970 -307 c102 -75 268 -196 370 -270 102 -74 214
-157 249 -183 35 -27 69 -49 76 -49 7 0 26 16 42 36 20 25 33 33 46 29 9 -4
17 -12 17 -19 0 -6 -138 -184 -306 -396 -544 -684 -637 -800 -877 -1102 -130
-163 -350 -440 -489 -615 -138 -175 -311 -392 -383 -483 -72 -91 -279 -352
-460 -580 -181 -228 -402 -506 -490 -616 -88 -111 -244 -307 -346 -435 -1722
-2169 -2496 -3143 -2560 -3225 -33 -41 -61 -66 -88 -76 -36 -15 -58 -9 -31 7
6 3 10 10 10 14 0 4 -45 40 -101 81 l-100 73 32 33 c18 19 38 34 44 34 6 0 51
-29 100 -65 50 -36 94 -64 100 -62 29 10 7 38 -75 97 -49 36 -90 67 -90 71 0
3 21 29 48 58 l47 53 90 -66 c49 -36 94 -65 100 -63 28 10 6 38 -75 95 -62 43
-88 67 -83 76 27 44 78 106 87 106 6 0 51 -30 99 -65 82 -61 107 -71 107 -42
0 7 -43 43 -95 80 l-95 69 31 56 c18 32 36 61 40 66 5 5 54 -25 114 -68 99
-71 125 -83 125 -53 0 7 -47 46 -105 87 -58 41 -105 80 -105 88 0 7 11 35 25
63 l26 50 32 -23 c18 -12 70 -50 116 -85 46 -35 90 -63 96 -63 11 0 45 41 45
54 0 2 -56 46 -125 96 -69 51 -126 98 -126 104 -2 16 -2 16 19 73 l18 52 151
-108 c111 -81 154 -106 162 -98 6 6 11 16 11 21 0 6 -56 50 -123 98 -67 48
-137 100 -155 115 l-32 28 16 60 c10 33 20 64 24 68 5 5 59 -29 121 -75 248
-183 242 -178 256 -167 15 13 17 36 4 41 -12 4 -314 225 -347 253 -23 19 -23
22 -12 93 6 39 15 72 20 72 8 0 77 -49 308 -219 99 -72 138 -96 148 -89 21 18
13 32 -41 70 -29 20 -128 93 -221 161 -104 76 -175 123 -184 119 -13 -4 -14 4
-9 58 4 34 10 119 13 189 4 69 7 127 8 128 1 1 143 -101 316 -227 173 -127
319 -230 325 -230 10 1 80 89 73 94 -1 2 -113 83 -248 181 -390 284 -471 345
-475 358 -2 6 -9 66 -15 132 -5 66 -12 129 -15 140 -6 21 -20 2 674 874 278
351 305 381 322 369 48 -33 647 -472 752 -550 65 -48 123 -88 130 -88 13 0 67
71 67 88 0 6 -75 66 -167 133 -93 68 -242 178 -333 244 -91 67 -205 150 -253
186 -48 35 -99 71 -112 79 -14 8 -25 18 -25 22 0 4 219 283 486 620 587 739
626 788 631 788 2 0 97 -68 211 -151 114 -84 236 -173 272 -199 36 -26 142
-104 237 -173 94 -70 178 -127 185 -127 13 0 68 71 68 87 0 5 -53 47 -117 94
-65 47 -197 143 -293 214 -96 71 -240 175 -320 233 -80 58 -149 108 -154 112
-4 5 88 129 205 277 117 147 319 401 448 563 382 480 455 570 464 570 5 0 109
-73 231 -163 121 -90 241 -177 266 -195 25 -17 124 -89 220 -161 l175 -130 38
41 c20 22 37 46 36 52 0 6 -124 101 -276 211 -488 354 -613 447 -613 456 0 5
71 99 158 208 86 109 336 424 555 700 251 315 403 499 410 494 7 -3 95 -67
197 -141z m-1631 -1195 c113 -82 207 -151 209 -153 3 -2 -521 -665 -982 -1242
l-138 -173 -41 32 c-23 17 -120 87 -214 156 -95 69 -173 129 -173 133 0 5 109
145 243 313 587 738 814 1023 840 1059 16 21 33 35 39 32 6 -4 103 -74 217
-157z m-1712 -1134 c87 -65 182 -134 211 -153 28 -19 50 -40 47 -47 -3 -10
-93 -124 -390 -498 -194 -244 -537 -676 -630 -793 -49 -62 -92 -111 -95 -110
-26 11 -420 305 -420 314 0 6 46 69 103 140 171 213 568 713 792 997 116 146
213 266 217 267 3 0 78 -53 165 -117z m-1734 -1614 c-26 -34 -71 -90 -100
-126 l-52 -64 -3 125 -3 126 103 0 103 0 -48 -61z m3947 -359 l0 -420 -675 0
c-641 0 -675 1 -666 18 5 9 74 98 153 197 80 99 224 280 321 403 l177 222 345
0 345 0 0 -420z m-3025 183 c50 -37 140 -102 200 -146 61 -43 116 -85 123 -92
12 -10 -69 -117 -463 -614 -263 -330 -481 -601 -485 -601 -4 0 -10 24 -14 53
-4 28 -16 97 -27 152 -18 86 -33 148 -79 334 -5 18 -21 46 -35 61 l-27 29 85
108 c47 59 178 225 292 368 114 143 235 295 268 337 34 43 64 78 67 78 3 0 46
-30 95 -67z m-7661 -570 l17 -33 -51 0 -50 0 0 108 1 107 33 -75 c18 -41 40
-90 50 -107z m3118 -146 c217 -216 309 -304 523 -496 88 -79 170 -153 181
-165 12 -12 43 -39 70 -61 73 -61 208 -178 219 -190 6 -7 48 -43 95 -81 47
-38 87 -71 90 -75 5 -6 103 -86 299 -242 47 -38 100 -80 116 -94 17 -14 51
-39 78 -55 26 -16 47 -34 47 -39 0 -5 17 -20 38 -34 64 -43 98 -68 184 -135
46 -35 135 -104 198 -152 120 -90 275 -209 395 -301 39 -30 94 -69 123 -88 54
-35 62 -52 37 -85 -8 -10 -15 -25 -15 -33 0 -15 -7 -30 -73 -172 -19 -41 -49
-111 -66 -155 -17 -44 -37 -89 -45 -100 -13 -16 -13 -9 0 56 8 41 21 104 29
140 48 202 63 286 53 297 -5 7 -40 29 -76 49 -37 21 -122 70 -190 111 -67 40
-126 73 -130 73 -7 0 -148 85 -267 161 -33 22 -76 48 -96 58 -20 11 -57 36
-83 55 -25 20 -50 36 -55 36 -4 0 -19 9 -32 21 -13 12 -46 36 -74 53 -27 18
-104 68 -170 111 -142 92 -217 142 -303 202 -35 24 -67 41 -72 38 -5 -3 5 -38
22 -78 84 -195 195 -469 252 -621 15 -37 32 -78 38 -90 6 -11 31 -76 55 -143
24 -68 64 -180 89 -250 37 -103 66 -189 79 -233 1 -3 5 -14 9 -25 15 -39 19
-50 21 -55 9 -25 18 -48 24 -60 5 -9 12 -34 15 -57 11 -63 22 -71 110 -80 48
-5 81 -13 84 -20 2 -8 -6 -13 -22 -13 -14 0 -51 -7 -83 -15 -31 -8 -63 -15
-70 -15 -7 0 -42 62 -78 138 -36 75 -70 145 -76 155 -5 10 -28 55 -50 100 -22
45 -49 98 -59 117 -10 19 -39 76 -65 125 -26 50 -87 167 -135 261 -49 94 -111
212 -139 262 -28 51 -51 94 -51 96 0 3 -24 46 -53 98 -30 51 -67 118 -84 148
-82 151 -228 404 -294 512 -27 44 -49 81 -49 84 0 3 -38 64 -95 154 -19 30
-121 195 -150 242 -14 24 -346 516 -370 549 -11 15 -42 57 -68 94 -44 60 -54
95 -28 95 6 0 93 -82 193 -183z m1355 -1568 c114 -78 217 -150 229 -160 11
-10 28 -19 37 -19 9 0 19 -5 22 -10 4 -6 23 -22 43 -35 21 -14 76 -53 125 -87
207 -148 294 -213 317 -236 14 -13 45 -38 70 -55 25 -17 75 -55 111 -84 l67
-54 -67 -133 c-72 -147 -57 -132 -198 -193 -78 -33 -307 -104 -336 -103 -6 1
-72 122 -146 269 -73 147 -153 306 -176 352 -24 46 -59 120 -78 164 -19 44
-53 118 -75 165 -73 155 -114 244 -129 285 -9 22 -20 44 -25 50 -8 10 -11 25
-4 25 3 0 98 -63 213 -141z m576 -1426 c-7 -2 -21 -2 -30 0 -10 3 -4 5 12 5
17 0 24 -2 18 -5z m1357 -143 c51 -38 95 -72 98 -74 8 -9 -53 -86 -65 -82 -19
7 -223 158 -223 165 1 10 72 61 85 61 6 0 53 -31 105 -70z m-498 -152 c74 -90
155 -190 180 -223 26 -33 62 -77 81 -97 19 -21 47 -55 63 -75 15 -21 51 -65
79 -99 27 -33 66 -80 85 -104 19 -25 45 -56 56 -69 l22 -26 50 55 c28 30 60
64 71 76 12 12 21 26 21 31 0 6 7 13 15 17 8 3 15 12 15 20 0 7 7 16 15 20 8
3 15 10 15 16 0 6 11 27 24 48 13 20 33 65 46 100 23 63 54 112 70 112 12 0
18 -45 24 -181 8 -181 56 -327 139 -420 40 -45 139 -119 158 -119 8 0 20 -5
26 -11 6 -6 41 -14 77 -16 73 -6 75 -17 9 -48 -83 -39 -264 -167 -528 -370
-33 -26 -101 -87 -152 -136 -50 -49 -93 -89 -95 -89 -2 0 -3 37 -4 83 0 67 -4
92 -26 140 -57 122 -160 218 -298 279 -30 14 -113 39 -185 57 -71 18 -137 39
-145 47 -22 22 12 40 88 48 87 9 175 30 247 60 81 33 225 105 225 112 0 6
-171 211 -216 259 -27 29 -90 103 -268 315 -49 58 -92 107 -97 108 -5 2 -9 9
-9 16 0 7 -21 35 -48 62 -79 82 -77 76 -36 123 21 22 45 41 54 41 9 0 76 -72
152 -162z m504 -49 c21 -14 21 -16 7 -52 -8 -20 -18 -37 -22 -36 -7 1 -184
216 -190 231 -2 5 39 -21 90 -59 52 -38 104 -76 115 -84z m-779 -281 c37 -42
35 -49 -6 -21 -22 15 -40 31 -41 36 0 15 27 6 47 -15z m24 -140 c157 -115 155
-102 22 -127 l-62 -12 -103 77 c-57 42 -103 80 -103 85 0 7 94 79 103 79 1 0
65 -46 143 -102z m-2437 -183 c44 -14 154 -41 245 -61 91 -19 178 -38 193 -42
28 -7 27 -8 -120 -192 -81 -102 -275 -346 -431 -542 -182 -229 -288 -355 -296
-350 -39 24 -415 305 -415 311 0 3 8 16 18 27 9 12 169 213 355 448 206 260
345 426 355 426 10 0 53 -11 96 -25z m4677 -552 c90 -124 114 -157 196 -276
86 -126 109 -160 166 -248 42 -64 90 -133 97 -139 3 -3 74 -106 156 -230 212
-318 347 -514 356 -518 4 -2 8 -9 8 -16 0 -7 9 -21 19 -30 11 -10 27 -32 35
-49 9 -18 30 -53 48 -78 257 -365 709 -951 812 -1054 7 -7 43 -47 82 -90 95
-107 110 -123 503 -525 191 -195 374 -384 407 -419 32 -35 66 -71 75 -80 48
-49 208 -250 293 -366 13 -18 -7 -41 -58 -67 -49 -25 -477 -347 -559 -421
-125 -113 -248 -239 -330 -342 -90 -111 -80 -109 -154 -30 -84 89 -241 277
-325 390 -4 6 -37 47 -73 91 -36 45 -65 86 -65 92 0 6 -3 12 -8 14 -10 4 -98
126 -254 351 -37 54 -68 101 -68 103 0 5 -86 132 -179 264 -44 62 -169 229
-235 315 -28 36 -72 89 -196 235 -25 29 -49 58 -55 64 -5 6 -25 29 -44 51 -19
22 -77 87 -130 145 -53 57 -118 129 -146 159 -93 102 -209 225 -340 360 -212
219 -829 831 -838 831 -7 0 -487 479 -514 513 -7 9 -13 20 -13 26 0 5 -7 11
-15 15 -8 3 -15 9 -15 14 0 17 95 128 182 213 137 134 167 161 268 240 52 41
104 82 115 91 45 38 259 189 288 204 18 9 39 22 47 29 14 12 47 31 150 86 19
11 42 23 50 29 41 25 197 99 211 99 8 1 31 -20 50 -46z m-2199 -68 c29 -20 68
-41 86 -47 l32 -12 0 -118 0 -118 -184 0 c-122 0 -186 -4 -188 -11 -2 -6 -20
-9 -40 -7 l-37 3 42 51 c23 28 85 105 137 172 52 67 96 122 97 122 1 0 25 -16
55 -35z m-3772 -600 c0 -3 -80 -106 -177 -228 -379 -476 -440 -553 -463 -584
l-24 -33 -675 0 -676 0 3 425 2 425 1005 0 c553 0 1005 -2 1005 -5z m8760
-420 l0 -425 -805 0 -805 0 -57 76 c-149 198 -277 373 -465 637 l-97 137 1114
0 1115 0 0 -425z m-7789 239 c63 -47 156 -115 207 -152 51 -36 91 -71 90 -78
-2 -7 -104 -140 -228 -296 -223 -281 -608 -765 -787 -990 -52 -65 -96 -118
-98 -118 -2 0 -82 57 -177 127 -95 69 -192 140 -215 156 l-42 30 32 41 c18 23
216 273 441 556 225 283 461 581 525 662 64 81 121 147 127 147 6 1 62 -38
125 -85z m4118 -660 c2 -2 -93 -4 -212 -4 l-217 0 0 219 0 219 213 -215 c116
-118 214 -217 216 -219z m-5651 -603 c100 -73 182 -134 182 -137 0 -2 -132
-169 -293 -371 -161 -203 -413 -520 -561 -706 -186 -234 -271 -335 -279 -329
-11 9 -343 252 -396 291 l-25 17 464 585 c255 321 497 627 539 679 41 52 86
107 100 122 l24 28 31 -24 c17 -12 113 -82 214 -155z m-866 -1754 c94 -69 294
-214 306 -223 2 -2 -38 -56 -90 -121 -52 -65 -296 -372 -542 -683 -247 -311
-458 -575 -471 -588 l-21 -23 -185 135 c-255 188 -246 181 -233 197 36 45 589
743 753 949 107 135 229 289 270 342 42 53 81 97 88 97 6 1 62 -36 125 -82z
m3978 -607 c0 -297 -4 -540 -9 -540 -4 0 -11 -41 -15 -92 -3 -50 -10 -94 -14
-97 -5 -3 -15 -34 -22 -68 -7 -35 -16 -63 -19 -63 -4 0 -13 -22 -20 -50 -7
-27 -16 -50 -19 -50 -4 0 -20 -27 -36 -60 -16 -33 -32 -60 -36 -60 -4 0 -12
-11 -18 -25 -13 -29 -14 -30 -79 -104 -103 -117 -248 -241 -282 -241 -6 0 -11
-4 -11 -9 0 -5 -16 -15 -35 -22 -19 -7 -35 -16 -35 -20 0 -3 -20 -12 -45 -19
-25 -7 -45 -16 -45 -20 0 -5 -24 -14 -52 -20 -29 -7 -55 -17 -58 -21 -3 -5
-42 -14 -85 -21 -44 -6 -83 -17 -87 -22 -10 -15 -2146 -15 -2156 -1 -4 6 -43
17 -87 24 -44 7 -82 16 -85 21 -3 4 -29 13 -57 20 -29 6 -53 15 -53 20 0 4
-20 13 -45 20 -25 7 -45 15 -45 19 0 3 33 47 73 96 80 100 367 461 612 770 87
110 220 277 294 370 74 94 223 280 330 415 107 135 220 277 250 317 l56 72
968 0 967 1 0 -540z m4719 420 c135 -220 408 -622 515 -760 149 -192 231 -292
293 -359 29 -31 59 -69 67 -86 8 -16 42 -61 75 -100 33 -38 56 -72 51 -75 -5
-3 -14 -18 -20 -34 -9 -25 -76 -134 -90 -146 -3 -3 -21 -25 -40 -50 -65 -84
-265 -259 -297 -260 -7 0 -13 -4 -13 -9 0 -5 -16 -15 -35 -22 -19 -7 -35 -16
-35 -19 0 -4 -19 -13 -42 -20 -24 -8 -45 -17 -48 -22 -3 -4 -28 -13 -55 -20
-28 -7 -52 -16 -55 -20 -3 -4 -42 -13 -85 -20 -44 -6 -83 -17 -87 -22 -11 -17
-2140 -15 -2145 2 -3 6 -17 12 -32 12 -37 0 -145 22 -151 30 -3 4 -29 13 -57
20 -29 6 -53 15 -53 20 0 4 -20 13 -45 20 -25 7 -45 16 -45 21 0 4 -16 13 -35
19 -19 6 -35 15 -35 20 0 4 -13 13 -30 20 -16 7 -30 16 -30 21 0 4 -10 11 -22
15 -28 8 -235 216 -273 274 -17 25 -32 47 -35 50 -3 3 -11 16 -18 30 -7 14
-26 50 -42 80 -16 30 -32 70 -35 88 -4 17 -11 32 -15 32 -4 0 -13 28 -20 63
-7 34 -17 67 -22 73 -5 7 -11 64 -15 128 -3 64 -10 116 -15 116 -4 0 -8 227
-8 505 l0 505 1503 0 1502 0 74 -120z m2423 -496 c153 -220 163 -233 170 -234
4 0 23 11 43 24 47 32 84 40 133 27 81 -22 156 -101 162 -171 6 -70 2 -79 -62
-126 -35 -26 -73 -50 -86 -55 -12 -5 -35 -17 -50 -27 -15 -11 -79 -49 -142
-86 -63 -37 -122 -71 -130 -76 -8 -5 -35 -22 -60 -36 -25 -15 -70 -44 -101
-65 -32 -22 -65 -42 -75 -46 -11 -3 -35 -18 -54 -33 -19 -15 -51 -35 -70 -46
-19 -10 -60 -37 -90 -60 -30 -22 -100 -71 -155 -108 -55 -37 -152 -103 -215
-146 -117 -81 -137 -89 -158 -68 -22 22 -12 47 36 84 26 20 61 53 78 72 l31
35 -105 101 c-302 292 -288 277 -269 290 9 7 17 17 17 22 0 8 47 66 85 105 8
9 15 18 15 21 0 5 60 76 103 121 15 16 27 32 27 35 1 7 130 131 255 244 75 68
209 170 255 194 19 11 49 28 65 40 17 11 53 30 80 43 28 12 73 33 100 46 28
13 55 22 60 21 6 -1 54 -65 107 -142z"/>
<path d="M14478 15725 c-10 -13 -18 -27 -18 -32 1 -12 279 -213 295 -213 16 0
21 16 30 85 4 28 14 72 22 99 13 42 13 50 1 63 -20 19 -30 5 -56 -70 -10 -32
-21 -59 -24 -60 -3 -1 -52 33 -111 76 -58 42 -109 77 -114 77 -4 0 -16 -11
-25 -25z"/>
<path d="M16286 15443 c-8 -19 -13 -14 89 -88 262 -192 339 -247 350 -251 16
-6 41 24 29 35 -5 4 -85 64 -179 131 -93 68 -190 138 -214 157 -49 37 -66 41
-75 16z"/>
<path d="M16172 15298 c-7 -7 -12 -15 -12 -19 0 -5 347 -264 435 -324 10 -7
19 -5 31 6 15 15 10 21 -63 76 -94 72 -371 273 -376 273 -2 0 -8 -5 -15 -12z"/>
<path d="M16046 15144 c-3 -9 -5 -18 -4 -19 2 -1 98 -71 213 -155 116 -84 216
-158 223 -163 16 -13 51 18 37 32 -31 27 -433 315 -446 318 -9 3 -19 -3 -23
-13z"/>
<path d="M15930 14995 c-8 -10 -9 -19 -4 -24 20 -19 427 -313 439 -317 13 -5
41 23 32 32 -13 14 -443 323 -448 324 -4 0 -12 -7 -19 -15z"/>
<path d="M15627 14982 c-27 -30 -20 -45 41 -87 31 -21 173 -124 316 -229 l258
-189 19 24 c10 13 19 29 19 36 0 10 -219 177 -363 277 -23 16 -90 64 -148 108
-58 43 -111 78 -116 78 -5 0 -17 -8 -26 -18z"/>
<path d="M15690 14695 c-11 -13 -10 -18 6 -30 10 -8 111 -82 224 -164 113 -83
211 -151 218 -151 6 0 12 8 11 18 0 10 -67 65 -177 145 -97 70 -198 144 -223
163 -41 30 -48 32 -59 19z"/>
<path d="M15564 14539 c-3 -6 -2 -14 2 -19 35 -32 440 -320 451 -320 40 0 -9
44 -207 189 -122 89 -225 161 -230 161 -5 0 -12 -5 -16 -11z"/>
<path d="M15452 14384 c3 -18 425 -333 446 -334 6 0 12 9 12 19 0 10 -6 21
-12 24 -7 3 -105 73 -218 156 -113 83 -211 151 -218 151 -8 0 -12 -7 -10 -16z"/>
<path d="M15327 14236 c-4 -9 72 -70 221 -179 206 -150 256 -178 239 -134 -5
15 -431 327 -446 327 -5 0 -11 -6 -14 -14z"/>
<path d="M15086 13933 c-4 -9 -3 -19 1 -23 23 -21 425 -312 437 -316 12 -5 43
22 35 30 -23 22 -447 326 -455 326 -7 0 -15 -8 -18 -17z"/>
<path d="M14969 13790 c-1 -5 -2 -14 -3 -19 -1 -7 123 -100 397 -299 39 -28
50 -32 62 -22 8 7 15 15 15 19 0 4 -68 56 -150 116 -83 61 -183 134 -222 163
-70 51 -96 62 -99 42z"/>
<path d="M14850 13635 c-7 -8 -11 -17 -9 -19 7 -6 383 -281 417 -305 31 -22
35 -22 50 -7 10 10 13 19 7 24 -23 21 -427 313 -439 318 -7 3 -19 -2 -26 -11z"/>
<path d="M14730 13485 c-7 -9 -11 -17 -9 -18 2 -2 104 -76 227 -166 181 -132
226 -160 238 -150 8 6 14 15 14 19 0 4 -30 30 -67 57 -303 222 -374 273 -382
273 -5 0 -14 -7 -21 -15z"/>
<path d="M14425 13470 c-9 -10 -15 -25 -12 -32 2 -7 145 -116 317 -242 l313
-228 18 23 c10 13 19 29 19 35 0 7 -57 54 -127 106 -251 186 -492 358 -501
358 -5 0 -17 -9 -27 -20z"/>
<path d="M14497 13193 c-15 -15 -4 -31 46 -68 179 -134 389 -285 396 -285 5 0
11 6 14 14 6 14 7 14 -258 206 -93 68 -175 127 -181 132 -6 4 -14 5 -17 1z"/>
<path d="M14370 13026 c0 -15 429 -336 449 -336 6 0 11 8 11 18 -1 10 -37 43
-88 80 -48 34 -145 105 -217 157 -129 94 -155 108 -155 81z"/>
<path d="M14254 12885 c-4 -9 -3 -20 2 -25 26 -23 436 -320 443 -320 5 0 11 6
14 14 3 8 -54 57 -166 139 -294 215 -286 210 -293 192z"/>
<path d="M14131 12723 c0 -24 434 -337 454 -329 23 8 18 20 -17 46 -232 172
-413 300 -424 300 -8 0 -14 -8 -13 -17z"/>
<path d="M13886 12424 c-4 -9 -5 -18 -4 -19 2 -1 104 -75 226 -164 181 -131
226 -160 238 -150 21 18 18 24 -33 62 -27 18 -126 91 -222 160 -95 70 -179
127 -186 127 -7 0 -16 -7 -19 -16z"/>
<path d="M13770 12275 c-7 -9 -11 -17 -9 -19 2 -2 99 -72 214 -156 116 -84
216 -158 223 -163 12 -9 42 7 42 22 0 10 -437 330 -451 331 -4 0 -12 -7 -19
-15z"/>
<path d="M13650 12126 c-12 -15 -18 -10 288 -235 35 -25 83 -61 108 -79 36
-27 48 -31 59 -22 8 7 15 16 15 20 0 9 -436 330 -449 330 -5 0 -14 -7 -21 -14z"/>
<path d="M13231 11967 c-11 -13 -21 -28 -21 -35 0 -6 60 -54 133 -106 72 -53
215 -157 316 -231 l184 -137 23 29 c13 15 22 31 21 35 -2 6 -451 337 -603 445
l-31 22 -22 -22z"/>
<path d="M13530 11975 c-7 -9 -11 -17 -9 -19 2 -1 72 -51 154 -111 83 -60 183
-133 223 -164 68 -51 74 -53 90 -38 14 15 14 19 2 31 -27 25 -430 316 -439
316 -5 0 -14 -7 -21 -15z"/>
<path d="M13296 11683 c-15 -15 -3 -33 42 -65 26 -19 125 -92 220 -161 95 -70
177 -127 181 -127 5 0 11 6 14 13 3 9 -57 60 -171 143 -270 197 -279 204 -286
197z"/>
<path d="M13176 11533 c-16 -17 2 -36 97 -104 56 -40 155 -113 221 -162 106
-79 146 -98 146 -68 0 5 -98 81 -217 168 -250 182 -238 174 -247 166z"/>
<path d="M13050 11367 c0 -8 61 -58 136 -113 75 -54 174 -127 221 -162 76 -56
113 -71 113 -44 0 5 -28 29 -62 54 -35 24 -134 97 -221 161 -153 113 -187 132
-187 104z"/>
<path d="M12933 11224 c-8 -21 -9 -20 230 -194 130 -94 214 -149 224 -146 8 3
13 11 11 18 -4 11 -442 338 -453 338 -3 0 -8 -7 -12 -16z"/>
<path d="M12695 10924 c-8 -9 -15 -17 -15 -19 0 -4 252 -191 303 -225 12 -8
51 -36 86 -62 50 -37 67 -45 77 -37 8 6 14 17 13 23 0 6 -101 84 -225 173
-199 144 -225 160 -239 147z"/>
<path d="M12575 10770 c-15 -17 -5 -26 211 -184 177 -129 230 -163 241 -155 7
6 13 17 12 23 0 6 -48 45 -107 88 -59 42 -159 115 -224 161 -111 82 -117 85
-133 67z"/>
<path d="M12461 10627 c-21 -21 -11 -33 72 -92 45 -33 145 -105 221 -162 109
-81 142 -101 152 -92 8 6 14 17 13 23 0 6 -77 67 -172 136 -286 209 -273 200
-286 187z"/>
<path d="M12031 10456 c-11 -12 -21 -27 -21 -32 0 -10 60 -55 430 -325 l205
-150 22 28 c13 15 23 31 23 34 0 3 -61 50 -136 105 -75 54 -200 145 -278 202
-77 57 -160 116 -182 132 l-41 29 -22 -23z"/>
<path d="M12334 10465 c-4 -9 -5 -18 -2 -20 2 -2 102 -76 223 -164 165 -120
223 -157 232 -149 7 6 13 16 12 22 0 13 -419 319 -443 324 -9 2 -19 -4 -22
-13z"/>
<path d="M12097 10173 c-17 -16 -2 -33 76 -88 45 -33 142 -103 215 -158 73
-54 139 -100 146 -103 7 -3 17 3 20 13 4 10 3 19 -2 21 -4 1 -106 74 -226 162
-119 88 -218 160 -220 160 -1 0 -6 -3 -9 -7z"/>
<path d="M11977 10023 c-4 -3 -7 -12 -7 -18 0 -13 434 -330 452 -330 36 0 3
34 -123 126 -78 57 -180 132 -226 167 -93 68 -87 65 -96 55z"/>
<path d="M11853 9865 c-3 -9 -4 -17 -2 -19 7 -7 312 -230 381 -279 63 -45 88
-52 88 -24 0 7 -10 18 -22 26 -13 8 -114 81 -225 163 -112 81 -205 148 -208
148 -3 0 -8 -7 -12 -15z"/>
<path d="M11740 9720 c-24 -15 -3 -36 112 -119 62 -44 160 -115 216 -157 97
-70 132 -84 132 -52 0 7 -10 19 -22 27 -28 17 -290 207 -369 267 -36 28 -60
40 -69 34z"/>
<path d="M11495 9410 c-16 -17 -10 -23 125 -121 304 -223 313 -229 327 -217 7
6 13 16 12 22 0 6 -64 57 -142 113 -78 56 -179 129 -223 162 -79 58 -82 59
-99 41z"/>
<path d="M13783 13946 c-68 -85 -123 -158 -123 -164 0 -8 22 -22 34 -22 1 0
42 50 90 110 49 61 90 109 92 107 2 -2 -1 -30 -7 -63 -34 -186 -37 -218 -24
-251 25 -60 88 -70 152 -24 45 32 102 99 127 148 19 38 21 112 3 137 -12 16
-14 16 -32 -4 -15 -17 -20 -36 -20 -79 0 -48 -5 -64 -28 -95 -35 -46 -91 -75
-114 -60 -38 24 -38 99 -2 244 17 68 8 170 -15 170 -6 0 -66 -69 -133 -154z"/>
<path d="M12240 12864 c-81 -35 -180 -173 -180 -250 0 -71 77 -115 131 -75 37
28 39 27 32 -14 -4 -26 -1 -41 12 -55 77 -85 291 127 259 256 -8 30 -24 30
-53 0 -19 -20 -20 -27 -10 -49 16 -35 -19 -108 -67 -138 -32 -20 -36 -20 -59
-5 -32 21 -31 38 1 93 20 35 23 47 14 59 -11 12 -19 7 -52 -31 -65 -73 -138
-73 -138 2 0 72 64 143 130 143 32 0 41 5 58 32 11 18 18 36 16 40 -8 13 -56
9 -94 -8z"/>
<path d="M11502 10934 l-83 -104 -33 25 -33 25 -21 -23 c-29 -31 -28 -42 8
-67 l30 -22 -20 -28 c-24 -33 -25 -46 -6 -53 8 -3 26 7 40 24 l26 29 94 -69
94 -70 21 23 c21 23 22 28 16 207 -7 175 -13 210 -39 208 -6 0 -48 -47 -94
-105z m81 -111 c4 -64 2 -103 -4 -103 -5 0 -34 19 -65 41 l-54 42 27 36 c62
82 78 100 84 93 4 -4 9 -53 12 -109z"/>
<path d="M7382 6787 c-28 -30 -28 -33 11 -77 40 -44 77 -165 77 -254 0 -60 12
-96 33 -95 15 0 247 293 247 312 0 8 -7 17 -15 21 -10 3 -42 -29 -102 -104
-48 -61 -91 -110 -95 -110 -5 0 -8 26 -8 58 -1 101 -72 272 -115 272 -6 0 -21
-10 -33 -23z"/>
<path d="M6689 4980 c-80 -42 -170 -171 -172 -248 -2 -69 88 -107 147 -61 l26
20 -6 -45 c-8 -57 6 -76 55 -75 56 1 120 46 169 118 35 52 42 71 42 110 0 74
-38 98 -100 66 -34 -18 -34 -18 -19 24 32 90 -48 141 -142 91z m67 -74 l28
-23 -17 -45 c-34 -89 -130 -144 -171 -99 -35 38 6 128 78 172 40 24 49 24 82
-5z m128 -142 c-1 -70 -75 -140 -122 -115 -32 17 -28 59 9 105 34 40 62 56 94
53 17 -2 20 -9 19 -43z"/>
<path d="M5035 3806 c-35 -15 -106 -90 -130 -136 -27 -52 -30 -129 -7 -166 26
-40 136 -114 171 -114 89 0 216 124 235 231 12 67 -31 129 -91 129 -33 0 -119
-47 -146 -80 -35 -41 -67 -103 -67 -130 0 -32 -18 -23 -41 21 -28 55 -19 97
30 149 28 30 46 40 69 40 22 0 36 8 51 29 12 16 21 32 21 35 0 11 -64 5 -95
-8z m203 -193 c6 -65 -64 -153 -122 -153 -32 0 -76 41 -76 70 0 45 46 104 105
134 27 14 32 14 60 -2 21 -13 31 -27 33 -49z"/>
<path d="M4328 2043 c-8 -10 -18 -23 -21 -30 -7 -10 273 -223 293 -223 16 0
27 33 33 97 4 35 14 80 22 100 15 35 15 39 -2 50 -23 17 -29 9 -56 -70 l-22
-67 -109 80 c-60 44 -112 80 -116 80 -4 0 -14 -8 -22 -17z"/>
<path d="M4155 1796 c-40 -17 -103 -88 -127 -144 -24 -54 -20 -122 8 -154 38
-42 136 -98 172 -98 104 0 222 126 222 238 0 50 -32 98 -94 140 -39 26 -58 32
-100 32 -28 -1 -64 -7 -81 -14z m86 -67 c62 -31 129 -97 129 -126 0 -61 -64
-133 -119 -133 -59 0 -163 80 -177 136 -12 46 30 111 86 133 35 14 36 13 81
-10z"/>
<path d="M9020 16825 l0 -295 590 0 590 0 0 295 0 295 -590 0 -590 0 0 -295z"/>
<path d="M9337 6704 c-15 -15 -5 -31 36 -60 23 -17 121 -88 217 -159 96 -70
182 -128 190 -129 8 -1 16 6 18 15 2 10 -67 66 -212 173 -224 162 -237 171
-249 160z"/>
<path d="M9101 6397 c-6 -6 -11 -16 -11 -21 1 -6 101 -84 223 -172 162 -118
225 -159 235 -152 6 6 12 16 12 22 0 6 -80 70 -177 141 -251 185 -268 196
-282 182z"/>
<path d="M8980 6244 c-17 -20 -18 -19 228 -198 192 -140 240 -165 230 -121 -2
11 -429 335 -442 335 -2 0 -9 -7 -16 -16z"/>
<path d="M8862 6098 c-7 -7 -12 -17 -12 -22 1 -6 56 -50 123 -98 67 -48 168
-121 224 -162 97 -71 102 -73 118 -56 15 17 14 19 -17 42 -18 14 -119 88 -225
166 -106 78 -194 142 -196 142 -1 0 -8 -5 -15 -12z"/>
<path d="M8742 5948 c-7 -7 -12 -15 -12 -19 0 -12 439 -329 455 -329 8 0 15 8
15 18 0 11 -78 74 -211 172 -248 182 -233 172 -247 158z"/>
<path d="M8438 5933 c-31 -36 -28 -41 60 -105 413 -304 546 -398 556 -395 13
5 42 55 35 60 -40 34 -612 449 -624 453 -6 3 -18 -3 -27 -13z"/>
<path d="M8494 5639 c-3 -6 -2 -14 2 -18 42 -38 439 -321 450 -321 38 0 2 37
-128 132 -334 243 -311 228 -324 207z"/>
<path d="M8377 5493 c-4 -3 -7 -10 -7 -14 0 -9 436 -328 453 -332 7 -1 12 5
12 15 0 15 -94 89 -341 266 -107 76 -107 76 -117 65z"/>
<path d="M8253 5333 c-4 -9 -2 -18 3 -20 5 -2 107 -75 227 -163 120 -88 222
-158 228 -155 5 4 9 12 9 20 0 14 -431 335 -450 335 -6 0 -14 -8 -17 -17z"/>
<path d="M8133 5185 c-3 -9 -4 -17 -2 -19 5 -5 216 -159 346 -253 57 -41 107
-71 113 -68 19 12 10 34 -22 56 -18 13 -117 85 -220 161 -103 76 -192 138
-198 138 -6 0 -13 -7 -17 -15z"/>
<path d="M7902 4888 c-7 -7 -12 -15 -12 -19 0 -9 437 -329 449 -329 5 0 14 6
20 14 10 11 1 23 -46 58 -78 59 -392 288 -396 288 -2 0 -8 -5 -15 -12z"/>
<path d="M7782 4738 c-7 -7 -12 -15 -12 -19 0 -4 35 -33 78 -63 42 -31 142
-103 222 -161 79 -58 147 -105 151 -105 14 0 33 32 22 38 -5 4 -107 78 -225
165 -119 86 -218 157 -220 157 -2 0 -9 -5 -16 -12z"/>
<path d="M7659 4584 c-11 -14 -11 -18 2 -28 98 -72 413 -303 424 -311 10 -7
20 -5 32 7 9 10 15 19 12 21 -14 13 -449 327 -453 327 -2 0 -10 -7 -17 -16z"/>
<path d="M7542 4438 c-7 -7 -12 -15 -12 -19 0 -13 436 -329 454 -329 8 0 16 7
19 15 5 13 -39 52 -119 105 -19 12 -282 203 -320 231 -6 5 -16 3 -22 -3z"/>
<path d="M7230 4413 c-11 -14 -17 -30 -13 -34 7 -6 238 -174 531 -387 l103
-75 24 29 c18 22 21 32 12 40 -25 24 -619 454 -627 454 -5 0 -18 -12 -30 -27z"/>
<path d="M7294 4128 c-5 -7 2 -19 17 -30 311 -229 423 -308 435 -308 34 0 7
31 -88 101 -57 42 -156 115 -220 163 -64 47 -121 86 -127 86 -5 0 -13 -5 -17
-12z"/>
<path d="M7177 3977 c-5 -13 411 -326 446 -335 14 -4 18 0 16 13 -4 18 -423
333 -445 334 -7 1 -14 -5 -17 -12z"/>
<path d="M7056 3824 c-4 -9 -5 -17 -4 -18 7 -3 85 -59 261 -189 103 -76 192
-135 197 -132 22 14 7 36 -57 82 -38 28 -136 100 -220 161 -84 62 -156 112
-161 112 -6 0 -13 -7 -16 -16z"/>
<path d="M6936 3673 c-4 -9 -1 -20 6 -24 7 -5 81 -58 163 -119 279 -206 274
-203 290 -190 23 19 19 24 -37 63 -29 19 -129 92 -223 161 -93 69 -175 126
-181 126 -7 0 -15 -8 -18 -17z"/>
<path d="M6699 3374 c-12 -15 -10 -19 11 -33 14 -9 77 -54 140 -101 281 -209
290 -214 308 -195 16 16 16 18 -3 31 -11 7 -112 81 -224 164 -112 82 -207 150
-211 150 -4 0 -14 -7 -21 -16z"/>
<path d="M6580 3225 c-8 -10 -9 -19 -4 -24 19 -18 427 -313 439 -317 6 -3 18
3 26 12 12 15 11 19 -8 31 -11 8 -113 81 -224 163 -112 82 -207 150 -210 150
-4 0 -12 -7 -19 -15z"/>
<path d="M6459 3074 c-12 -15 -11 -19 11 -33 32 -21 312 -226 374 -273 27 -21
54 -38 61 -38 16 0 29 31 18 40 -21 19 -427 312 -438 316 -6 3 -18 -3 -26 -12z"/>
<path d="M6041 2914 c-12 -15 -20 -32 -18 -38 2 -6 55 -48 118 -94 63 -45 204
-148 313 -229 l199 -147 23 30 c13 16 23 32 21 35 -1 4 -128 98 -282 210 -154
112 -296 217 -316 232 l-37 28 -21 -27z"/>
<path d="M6340 2925 c-7 -9 -11 -17 -9 -19 5 -5 213 -157 346 -253 55 -40 106
-73 111 -73 5 0 13 7 16 15 4 11 -25 38 -101 93 -59 42 -160 116 -225 165 -65
48 -120 87 -122 87 -2 0 -9 -7 -16 -15z"/>
<path d="M6100 2611 c0 -10 6 -21 13 -24 8 -3 106 -73 219 -156 113 -83 211
-151 217 -151 32 0 1 36 -81 98 -212 157 -347 252 -357 252 -6 0 -11 -9 -11
-19z"/>
<path d="M5977 2466 c-3 -8 11 -25 36 -43 23 -16 121 -87 217 -158 181 -132
210 -149 210 -121 0 9 -39 44 -86 78 -48 35 -146 107 -219 161 -73 53 -137 97
-143 97 -5 0 -12 -6 -15 -14z"/>
<path d="M5857 2316 c-4 -10 65 -66 221 -180 206 -151 227 -165 242 -150 14
14 13 17 -6 30 -11 8 -112 81 -225 164 -112 82 -209 150 -215 150 -7 0 -14 -6
-17 -14z"/>
<path d="M5740 2165 c-11 -13 -10 -18 6 -30 88 -63 174 -125 294 -214 133 -97
143 -102 159 -86 15 16 15 18 -5 31 -11 8 -112 81 -225 164 -112 82 -207 150
-210 150 -4 0 -12 -7 -19 -15z"/>
<path d="M5500 1865 c-16 -19 -34 -4 194 -169 104 -76 202 -147 217 -158 24
-18 31 -19 44 -8 9 7 14 16 13 20 -3 9 -425 319 -443 326 -6 3 -18 -2 -25 -11z"/>
<path d="M5380 1715 c-7 -8 -11 -17 -9 -19 15 -11 198 -144 216 -156 12 -8 70
-50 128 -93 87 -65 108 -77 120 -67 8 7 15 16 15 20 0 9 -419 316 -443 326 -7
2 -20 -2 -27 -11z"/>
<path d="M5260 1566 c-15 -19 -27 -8 278 -230 136 -98 165 -116 178 -105 8 6
13 15 12 20 -4 9 -439 329 -448 329 -4 0 -13 -6 -20 -14z"/>
<path d="M4841 1404 c-12 -15 -21 -30 -21 -34 0 -7 100 -83 295 -225 39 -28
130 -96 204 -150 l134 -99 23 29 c13 17 24 32 24 35 0 3 -123 94 -273 203
-149 109 -293 213 -319 233 l-46 35 -21 -27z"/>
<path d="M5143 1413 c-7 -18 -12 -14 151 -133 64 -47 155 -114 202 -148 69
-52 87 -62 99 -52 21 18 19 22 -28 54 -23 17 -124 90 -224 163 -100 73 -184
133 -188 133 -3 0 -8 -7 -12 -17z"/>
<path d="M4902 1105 c3 -14 430 -335 447 -335 5 0 11 6 14 14 3 8 -18 30 -56
58 -34 25 -133 97 -220 161 -151 112 -192 135 -185 102z"/>
<path d="M4780 957 c0 -8 24 -32 53 -53 28 -21 128 -94 220 -162 152 -112 197
-136 197 -104 0 12 -426 323 -451 329 -13 4 -19 0 -19 -10z"/>
<path d="M4661 803 c0 -11 52 -56 131 -113 72 -52 171 -125 221 -162 81 -60
93 -66 106 -53 18 18 27 9 -124 122 -295 220 -336 245 -334 206z"/>
<path d="M4537 656 c-6 -16 8 -28 271 -220 140 -102 177 -125 188 -115 8 6 14
15 14 19 0 5 -64 55 -142 111 -79 57 -178 129 -220 161 -79 60 -102 69 -111
44z"/>
</g>
</svg>
